<?xml version="1.0" encoding="utf-8"?>
<!-- Generator: Adobe Illustrator 14.0.0, SVG Export Plug-In . SVG Version: 6.00 Build 43363)  -->
<!DOCTYPE svg PUBLIC "-//W3C//DTD SVG 1.1//EN" "http://www.w3.org/Graphics/SVG/1.1/DTD/svg11.dtd">
<svg version="1.1"
     id="Layer_1"
     xmlns="http://www.w3.org/2000/svg"
     x="0px"
     y="0px"
     width="850px"
     height="248px"
     viewBox="-255 30.508 850 248"
     enable-background="new -255 30.508 850 248"
     xml:space="preserve">
<g>
	<path fill="#DA002A" d="M-6.068,172.564c18.027,0,21.523,9.529,21.523,31.778c0,31.418-13.946,31.418-22.661,31.418H-19.98v-63.196
		H-6.068z M-4.619,73.697c12.712,0,17.799,11.8,17.799,28.082c0,20.726-6.45,28.072-15.521,28.072H-19.98V73.697H-4.619z
		 M-77.621,30.965v247.543H1.984c55.344,0,66.967-36.369,66.967-66.804c0-25.976-4.427-52.942-33.163-61.868
		c19.012-7.81,33.904-26.781,33.904-53.415c0-58.652-40.26-65.454-67.435-65.454h-79.879V30.965z"/>
	<path fill="#DA002A" d="M156.708,172.564c17.987,0,21.529,9.529,21.529,31.778c0,31.414-13.949,31.414-22.665,31.414H142.8v-63.192
		H156.708z M158.155,73.697c12.718,0,17.799,11.8,17.799,28.082c0,20.726-6.451,28.066-15.517,28.066h-17.638V73.696L158.155,73.697
		L158.155,73.697z M85.119,30.965v247.543h79.645c55.377,0,66.993-36.369,66.993-66.804c0-25.985-4.46-52.952-33.149-61.871
		c18.969-7.812,33.864-26.778,33.864-53.417c0-58.652-40.314-65.449-67.445-65.449H85.119V30.965z"/>
	<path fill="#DA002A" d="M335.9,30.965c0,0-21.617,83.98-26.506,99.213c-4.593-15.303-24.613-99.213-24.613-99.213h-53.77
		c0,0,48.674,160.611,48.979,161.409v86.134h57.639v-86.106c0.35-0.854,48.85-161.434,48.85-161.434H335.9V30.965L335.9,30.965z"/>
	<path fill="#DA002A" d="M497.506,30.965c0,0-21.585,83.98-26.51,99.213c-4.598-15.303-24.613-99.213-24.613-99.213h-53.685
		c0,0,48.595,160.611,48.902,161.409v86.134h57.63v-86.106c0.354-0.854,48.855-161.434,48.855-161.434h-50.581L497.506,30.965
		L497.506,30.965z"/>
	<path fill="#DA002A" d="M-186.467,182.984l14.915-73.911l14.909,73.911H-186.467z M-137.353,278.508h49.254l-49.96-247.551h-66.978
		L-255,278.504h49.25l10.662-52.734h47.077L-137.353,278.508z"/>
	<path fill="#DA002A" d="M576.638,30.508c10.321,0,18.362,8.286,18.362,18.388c0,10.154-8.041,18.399-18.362,18.399
		c-10.298,0-18.423-8.243-18.423-18.399C558.215,38.791,566.339,30.508,576.638,30.508z M576.638,64.528
		c8.324,0,14.895-7.008,14.895-15.633c0-8.665-6.61-15.587-14.895-15.587c-8.328,0-14.919,6.921-14.919,15.587
		C561.719,57.519,568.271,64.528,576.638,64.528z M569.915,39.569h8.101c1.965,0,6.064,0.508,6.064,5.302
		c0,1.252-0.318,3.079-3.079,4.204v0.109c2.338,0.435,2.504,2.54,2.656,4.405c0.151,2.828,0,3.363,0.723,4.333h-3.567
		c-0.586-0.725-0.543-1.149-0.65-4.17c-0.047-1.669-0.18-3.418-4.021-3.418h-2.828v7.587h-3.396L569.915,39.569L569.915,39.569z
		 M573.312,47.813h3.902c2.9,0,3.389-1.631,3.389-2.945c0-2.225-1.507-2.78-3.667-2.78h-3.623L573.312,47.813L573.312,47.813z"/>
</g>
</svg>
