<svg width="160" height="68" viewBox="0 0 526 200" fill="none" xmlns="http://www.w3.org/2000/svg"><path d="M377.778 161.452C377.778 157.6 375.288 154.529 373.232 149.873C367.684 155.556 365.459 159.384 365.459 164.12C365.459 166.421 367.528 168.351 370.066 168.351C374.298 168.351 377.778 166.446 377.778 162.674V161.452ZM494.691 182.467C479.023 182.467 451.898 158.967 444.017 140.134L444.873 160.795C444.725 168.69 440.198 173.53 434.686 173.53C424.184 173.53 418.689 166.233 418.911 154.465L418.477 107.228C411.394 117.175 403.023 125.568 395.09 132.825C400.327 141.88 403.963 150.316 403.963 156.996C403.963 171.444 388.842 183.212 370.219 183.212C359.791 183.212 351.375 174.647 351.375 164.07C351.375 154.041 357.722 145.529 366.535 136.884C364.342 133.358 361.977 129.681 359.59 125.878C347.703 151.514 329.663 173.53 311.746 173.53C301.541 173.53 292.602 164.667 291.857 153.718L289.399 119.161C289.325 117.895 288.356 117.821 287.983 118.939L269.809 168.391C266.828 176.585 259.751 183.212 254.091 183.212C243.364 183.212 234.055 173.828 233.309 162.358L229.212 100.542C229.137 99.3511 228.169 99.2774 227.872 100.393L210.962 158.338C208.28 167.645 200.31 173.53 192.935 173.53C182.358 173.53 176.028 166.233 175.803 154.465L175.197 48.3465C175.197 47.3782 174.08 47.2285 173.856 48.1231C161.017 107.297 152.814 145.106 149.249 161.551C143.902 186.217 141.468 197.792 125.318 199.147C117.509 199.147 114.598 196.875 111.301 191.768C108.135 186.86 106.259 181.229 105.498 175.439L90.5217 80.0611C90.3732 78.8707 89.4035 78.8707 89.1065 79.9875L65.8801 170.7C63.8546 178.588 59.702 183.212 50.8376 183.212C42.1354 182.931 37.2974 177.625 34.3195 165.413L18.4733 93.4919C16.9095 87.1605 13.7059 80.5121 9.53373 80.5121C5.66107 80.5121 4.4692 83.7888 2.08547 83.7888C0.594123 83.7888 0 82.8954 0 80.5121C0 71.2758 11.8043 59.7139 22.234 59.7139C29.9806 59.7139 36.5352 65.9717 38.919 75.802L51.4683 135.343C51.7666 136.536 52.6602 136.536 52.9584 135.343L74.4007 51.1336C77.4547 39.8882 85.3994 32.9628 94.6361 32.9628C104.171 32.9628 108.312 40.2613 109.949 52.4749L127.815 147.149C127.965 148.34 128.933 148.415 129.232 147.299L157.946 22.3422C161.668 8.48894 169.713 0 179.1 0C188.187 0 198.828 9.23508 199.126 24.2788L200.98 126.702C200.98 127.893 202.024 128.042 202.323 127L215.507 85.5727C218.41 76.1131 225.562 70.1572 234.649 70.1572C245.673 70.1572 252.973 76.8604 253.793 87.8088L258.412 148.655C258.487 149.845 259.38 149.921 259.827 148.804L284.11 82.5193C286.94 74.8478 292.005 70.1572 297.369 70.1572C305.936 70.1572 311.746 77.0077 312.64 88.1794L317.184 143.665C317.481 146.868 318.971 148.877 321.133 148.877C328.83 148.877 340.776 128.615 348.837 107.09C344.041 97.3541 340.572 87.1604 340.572 76.8604C340.572 61.964 349.139 49.9001 359.642 49.9001C367.389 49.9001 373.348 58.6124 373.348 72.4644C373.348 79.4369 372.234 87.397 370.221 95.7169C375.185 103.038 380.943 111.002 386.288 118.928C402.321 104.164 416.824 86.4408 418.048 59.6628L418.771 18.0983C418.995 6.18047 421.973 0.743733 428.902 0.743733C437.617 0.743733 444.884 10.1285 444.735 21.5984L444.295 114.319C453.033 97.2011 482.194 75.7424 488.509 75.7424C494.99 75.7424 499.682 85.4979 499.682 94.2874C499.682 99.4984 494.542 104.265 488.585 107.99C471.822 118.416 456.868 122.995 456.868 128.135C456.868 136.923 495.957 158.56 509.665 158.56C516.814 158.56 520.838 152.602 523.518 152.602C524.634 152.602 525.604 153.868 525.604 155.358C525.604 165.337 508.173 182.467 494.691 182.467ZM312.077 37.9822C312.077 46.4474 306.119 53.3795 298.731 53.3795C291.344 53.3795 285.386 46.4474 285.386 37.9822C285.386 29.5157 291.344 22.5836 298.731 22.5836C306.119 22.5836 312.077 29.5157 312.077 37.9822Z" fill="#233748"/></svg>
